<svg width="185" height="36" viewBox="0 0 185 36" fill="none" xmlns="http://www.w3.org/2000/svg">
<path d="M13.5721 36H9.37207C8.63874 36 8.27207 35.65 8.27207 34.95V9.9C8.27207 9.53333 8.08874 9.35 7.72207 9.35H2.02207C1.32207 9.35 0.97207 9 0.97207 8.3V4.9C0.97207 4.2 1.32207 3.85 2.02207 3.85H20.9221C21.6221 3.85 21.9721 4.2 21.9721 4.9V8.3C21.9721 9 21.6221 9.35 20.9221 9.35H15.2221C14.8221 9.35 14.6221 9.53333 14.6221 9.9V34.95C14.6221 35.65 14.2721 36 13.5721 36Z" fill="#FFA200"/>
<path d="M44.09 36H33.04C30.4067 36 28.3734 35.3 26.94 33.9C25.5067 32.5 24.79 30.4833 24.79 27.85V18.65C24.79 16.0167 25.5067 14 26.94 12.6C28.3734 11.2 30.4067 10.5 33.04 10.5H36.99C39.6234 10.5 41.6567 11.2 43.09 12.6C44.5234 14 45.24 16.0167 45.24 18.65V25C45.24 25.7 44.89 26.05 44.19 26.05H31.64C31.24 26.05 31.04 26.2333 31.04 26.6V27.7C31.04 28.7333 31.2567 29.4833 31.69 29.95C32.1567 30.3833 32.9234 30.6 33.99 30.6H44.09C44.79 30.6 45.14 30.9667 45.14 31.7V35C45.14 35.3667 45.0567 35.6333 44.89 35.8C44.7567 35.9333 44.49 36 44.09 36ZM31.64 21.8H38.44C38.8067 21.8 38.99 21.6167 38.99 21.25V18.85C38.99 17.7833 38.7734 17.0333 38.34 16.6C37.9067 16.1667 37.1567 15.95 36.09 15.95H33.99C32.9234 15.95 32.1734 16.1667 31.74 16.6C31.3067 17.0333 31.09 17.7833 31.09 18.85V21.25C31.09 21.6167 31.2734 21.8 31.64 21.8ZM113.87 6.2V1.85C113.87 1.18333 114.203 0.85 114.87 0.85H119.22C119.887 0.85 120.22 1.16667 120.22 1.8V6.2C120.22 6.86667 119.887 7.2 119.22 7.2H114.87C114.203 7.2 113.87 6.86667 113.87 6.2ZM113.87 34.95V11.55C113.87 10.85 114.203 10.5 114.87 10.5H119.17C119.87 10.5 120.22 10.85 120.22 11.55V34.95C120.22 35.3833 120.137 35.6667 119.97 35.8C119.837 35.9333 119.587 36 119.22 36H114.92C114.22 36 113.87 35.65 113.87 34.95ZM131.274 36H127.024C126.324 36 125.974 35.65 125.974 34.95V11.55C125.974 10.85 126.324 10.5 127.024 10.5H131.274C131.974 10.5 132.324 10.85 132.324 11.55V13.2H132.524C133.257 11.4 134.89 10.5 137.424 10.5H139.024C144.257 10.5 146.874 13.2167 146.874 18.65V34.95C146.874 35.65 146.507 36 145.774 36H141.574C140.874 36 140.524 35.65 140.524 34.95V18.95C140.524 17.8833 140.29 17.1333 139.824 16.7C139.39 16.2333 138.64 16 137.574 16H135.774C133.474 16 132.324 17.2667 132.324 19.8V34.95C132.324 35.65 131.974 36 131.274 36ZM161.096 36H159.896C157.262 36 155.229 35.3 153.796 33.9C152.362 32.5 151.646 30.4833 151.646 27.85V18.65C151.646 16.0167 152.362 14 153.796 12.6C155.229 11.2 157.262 10.5 159.896 10.5H171.446C172.179 10.5 172.546 10.85 172.546 11.55V34.95C172.546 35.65 172.179 36 171.446 36H167.246C166.546 36 166.196 35.65 166.196 34.95V33.3H165.996C165.629 34.2 164.979 34.8833 164.046 35.35C163.112 35.7833 162.129 36 161.096 36ZM166.196 26.7V16.55C166.196 16.1833 165.996 16 165.596 16H160.896C159.829 16 159.079 16.2333 158.646 16.7C158.212 17.1333 157.996 17.8833 157.996 18.95V27.55C157.996 28.6167 158.212 29.3833 158.646 29.85C159.079 30.2833 159.829 30.5 160.896 30.5H162.746C165.046 30.5 166.196 29.2333 166.196 26.7ZM183.574 36H179.324C178.624 36 178.274 35.65 178.274 34.95V1.9C178.274 1.2 178.624 0.85 179.324 0.85H183.574C184.274 0.85 184.624 1.2 184.624 1.9V34.95C184.624 35.65 184.274 36 183.574 36Z" fill="#5C2975"/>
<path d="M55.7971 36H51.5471C50.8471 36 50.4971 35.65 50.4971 34.95V4.9C50.4971 4.2 50.8471 3.85 51.5471 3.85H63.4471C66.0471 3.85 68.0804 4.56667 69.5471 6C71.0137 7.43333 71.7471 9.45 71.7471 12.05V15.95C71.7471 19.7167 70.2637 22.2167 67.2971 23.45V23.65L72.6471 34.8C72.9471 35.6 72.6637 36 71.7971 36H67.7471C67.1471 36 66.7137 35.9333 66.4471 35.8C66.1804 35.6667 65.9637 35.3833 65.7971 34.95L60.7971 24.15H57.4471C57.0471 24.15 56.8471 24.3333 56.8471 24.7V34.95C56.8471 35.65 56.4971 36 55.7971 36ZM57.3971 19.05H62.2971C63.3637 19.05 64.1471 18.8333 64.6471 18.4C65.1471 17.9333 65.3971 17.2 65.3971 16.2V12.3C65.3971 11.2667 65.1471 10.5167 64.6471 10.05C64.1471 9.58333 63.3637 9.35 62.2971 9.35H57.3971C57.0304 9.35 56.8471 9.53333 56.8471 9.9V18.5C56.8471 18.8667 57.0304 19.05 57.3971 19.05ZM99.1908 3.85H106.591C107.291 3.85 107.641 4.2 107.641 4.9V34.95C107.641 35.65 107.291 36 106.591 36H102.491C101.791 36 101.441 35.65 101.441 34.95V11.25H101.241L96.1408 28C95.9408 28.6667 95.5242 29 94.8908 29H90.6908C90.0575 29 89.6408 28.6667 89.4408 28L84.2408 11.2H84.0408V34.95C84.0408 35.35 83.9742 35.6333 83.8408 35.8C83.7075 35.9333 83.4242 36 82.9908 36H78.8908C78.1908 36 77.8408 35.65 77.8408 34.95V4.9C77.8408 4.2 78.1908 3.85 78.8908 3.85H86.3408C86.8075 3.85 87.1242 4.08333 87.2908 4.55L92.5908 22.2H92.8908L98.2408 4.55C98.3408 4.08333 98.6575 3.85 99.1908 3.85Z" fill="#FFA100"/>
</svg>
