<svg width="187" height="38" viewBox="0 0 187 38" fill="none" xmlns="http://www.w3.org/2000/svg">
<mask id="path-1-outside-1_2117_559" maskUnits="userSpaceOnUse" x="0" y="0" width="187" height="38" fill="black">
<rect fill="white" width="187" height="38"/>
<path d="M14.5721 37H10.3721C9.63874 37 9.27207 36.65 9.27207 35.95V10.9C9.27207 10.5333 9.08874 10.35 8.72207 10.35H3.02207C2.32207 10.35 1.97207 10 1.97207 9.3V5.9C1.97207 5.2 2.32207 4.85 3.02207 4.85H21.9221C22.6221 4.85 22.9721 5.2 22.9721 5.9V9.3C22.9721 10 22.6221 10.35 21.9221 10.35H16.2221C15.8221 10.35 15.6221 10.5333 15.6221 10.9V35.95C15.6221 36.65 15.2721 37 14.5721 37ZM45.09 37H34.04C31.4067 37 29.3734 36.3 27.94 34.9C26.5067 33.5 25.79 31.4833 25.79 28.85V19.65C25.79 17.0167 26.5067 15 27.94 13.6C29.3734 12.2 31.4067 11.5 34.04 11.5H37.99C40.6234 11.5 42.6567 12.2 44.09 13.6C45.5234 15 46.24 17.0167 46.24 19.65V26C46.24 26.7 45.89 27.05 45.19 27.05H32.64C32.24 27.05 32.04 27.2333 32.04 27.6V28.7C32.04 29.7333 32.2567 30.4833 32.69 30.95C33.1567 31.3833 33.9234 31.6 34.99 31.6H45.09C45.79 31.6 46.14 31.9667 46.14 32.7V36C46.14 36.3667 46.0567 36.6333 45.89 36.8C45.7567 36.9333 45.49 37 45.09 37ZM32.64 22.8H39.44C39.8067 22.8 39.99 22.6167 39.99 22.25V19.85C39.99 18.7833 39.7734 18.0333 39.34 17.6C38.9067 17.1667 38.1567 16.95 37.09 16.95H34.99C33.9234 16.95 33.1734 17.1667 32.74 17.6C32.3067 18.0333 32.09 18.7833 32.09 19.85V22.25C32.09 22.6167 32.2734 22.8 32.64 22.8ZM56.7971 37H52.5471C51.8471 37 51.4971 36.65 51.4971 35.95V5.9C51.4971 5.2 51.8471 4.85 52.5471 4.85H64.4471C67.0471 4.85 69.0804 5.56667 70.5471 7C72.0137 8.43333 72.7471 10.45 72.7471 13.05V16.95C72.7471 20.7167 71.2637 23.2167 68.2971 24.45V24.65L73.6471 35.8C73.9471 36.6 73.6637 37 72.7971 37H68.7471C68.1471 37 67.7137 36.9333 67.4471 36.8C67.1804 36.6667 66.9637 36.3833 66.7971 35.95L61.7971 25.15H58.4471C58.0471 25.15 57.8471 25.3333 57.8471 25.7V35.95C57.8471 36.65 57.4971 37 56.7971 37ZM58.3971 20.05H63.2971C64.3637 20.05 65.1471 19.8333 65.6471 19.4C66.1471 18.9333 66.3971 18.2 66.3971 17.2V13.3C66.3971 12.2667 66.1471 11.5167 65.6471 11.05C65.1471 10.5833 64.3637 10.35 63.2971 10.35H58.3971C58.0304 10.35 57.8471 10.5333 57.8471 10.9V19.5C57.8471 19.8667 58.0304 20.05 58.3971 20.05ZM100.191 4.85H107.591C108.291 4.85 108.641 5.2 108.641 5.9V35.95C108.641 36.65 108.291 37 107.591 37H103.491C102.791 37 102.441 36.65 102.441 35.95V12.25H102.241L97.1408 29C96.9408 29.6667 96.5242 30 95.8908 30H91.6908C91.0575 30 90.6408 29.6667 90.4408 29L85.2408 12.2H85.0408V35.95C85.0408 36.35 84.9742 36.6333 84.8408 36.8C84.7075 36.9333 84.4242 37 83.9908 37H79.8908C79.1908 37 78.8408 36.65 78.8408 35.95V5.9C78.8408 5.2 79.1908 4.85 79.8908 4.85H87.3408C87.8075 4.85 88.1242 5.08333 88.2908 5.55L93.5908 23.2H93.8908L99.2408 5.55C99.3408 5.08333 99.6575 4.85 100.191 4.85ZM114.87 7.2V2.85C114.87 2.18333 115.203 1.85 115.87 1.85H120.22C120.887 1.85 121.22 2.16667 121.22 2.8V7.2C121.22 7.86667 120.887 8.2 120.22 8.2H115.87C115.203 8.2 114.87 7.86667 114.87 7.2ZM114.87 35.95V12.55C114.87 11.85 115.203 11.5 115.87 11.5H120.17C120.87 11.5 121.22 11.85 121.22 12.55V35.95C121.22 36.3833 121.137 36.6667 120.97 36.8C120.837 36.9333 120.587 37 120.22 37H115.92C115.22 37 114.87 36.65 114.87 35.95ZM132.274 37H128.024C127.324 37 126.974 36.65 126.974 35.95V12.55C126.974 11.85 127.324 11.5 128.024 11.5H132.274C132.974 11.5 133.324 11.85 133.324 12.55V14.2H133.524C134.257 12.4 135.89 11.5 138.424 11.5H140.024C145.257 11.5 147.874 14.2167 147.874 19.65V35.95C147.874 36.65 147.507 37 146.774 37H142.574C141.874 37 141.524 36.65 141.524 35.95V19.95C141.524 18.8833 141.29 18.1333 140.824 17.7C140.39 17.2333 139.64 17 138.574 17H136.774C134.474 17 133.324 18.2667 133.324 20.8V35.95C133.324 36.65 132.974 37 132.274 37ZM162.096 37H160.896C158.262 37 156.229 36.3 154.796 34.9C153.362 33.5 152.646 31.4833 152.646 28.85V19.65C152.646 17.0167 153.362 15 154.796 13.6C156.229 12.2 158.262 11.5 160.896 11.5H172.446C173.179 11.5 173.546 11.85 173.546 12.55V35.95C173.546 36.65 173.179 37 172.446 37H168.246C167.546 37 167.196 36.65 167.196 35.95V34.3H166.996C166.629 35.2 165.979 35.8833 165.046 36.35C164.112 36.7833 163.129 37 162.096 37ZM167.196 27.7V17.55C167.196 17.1833 166.996 17 166.596 17H161.896C160.829 17 160.079 17.2333 159.646 17.7C159.212 18.1333 158.996 18.8833 158.996 19.95V28.55C158.996 29.6167 159.212 30.3833 159.646 30.85C160.079 31.2833 160.829 31.5 161.896 31.5H163.746C166.046 31.5 167.196 30.2333 167.196 27.7ZM184.574 37H180.324C179.624 37 179.274 36.65 179.274 35.95V2.9C179.274 2.2 179.624 1.85 180.324 1.85H184.574C185.274 1.85 185.624 2.2 185.624 2.9V35.95C185.624 36.65 185.274 37 184.574 37Z"/>
</mask>
<path d="M14.5721 37H10.3721C9.63874 37 9.27207 36.65 9.27207 35.95V10.9C9.27207 10.5333 9.08874 10.35 8.72207 10.35H3.02207C2.32207 10.35 1.97207 10 1.97207 9.3V5.9C1.97207 5.2 2.32207 4.85 3.02207 4.85H21.9221C22.6221 4.85 22.9721 5.2 22.9721 5.9V9.3C22.9721 10 22.6221 10.35 21.9221 10.35H16.2221C15.8221 10.35 15.6221 10.5333 15.6221 10.9V35.95C15.6221 36.65 15.2721 37 14.5721 37ZM45.09 37H34.04C31.4067 37 29.3734 36.3 27.94 34.9C26.5067 33.5 25.79 31.4833 25.79 28.85V19.65C25.79 17.0167 26.5067 15 27.94 13.6C29.3734 12.2 31.4067 11.5 34.04 11.5H37.99C40.6234 11.5 42.6567 12.2 44.09 13.6C45.5234 15 46.24 17.0167 46.24 19.65V26C46.24 26.7 45.89 27.05 45.19 27.05H32.64C32.24 27.05 32.04 27.2333 32.04 27.6V28.7C32.04 29.7333 32.2567 30.4833 32.69 30.95C33.1567 31.3833 33.9234 31.6 34.99 31.6H45.09C45.79 31.6 46.14 31.9667 46.14 32.7V36C46.14 36.3667 46.0567 36.6333 45.89 36.8C45.7567 36.9333 45.49 37 45.09 37ZM32.64 22.8H39.44C39.8067 22.8 39.99 22.6167 39.99 22.25V19.85C39.99 18.7833 39.7734 18.0333 39.34 17.6C38.9067 17.1667 38.1567 16.95 37.09 16.95H34.99C33.9234 16.95 33.1734 17.1667 32.74 17.6C32.3067 18.0333 32.09 18.7833 32.09 19.85V22.25C32.09 22.6167 32.2734 22.8 32.64 22.8ZM56.7971 37H52.5471C51.8471 37 51.4971 36.65 51.4971 35.95V5.9C51.4971 5.2 51.8471 4.85 52.5471 4.85H64.4471C67.0471 4.85 69.0804 5.56667 70.5471 7C72.0137 8.43333 72.7471 10.45 72.7471 13.05V16.95C72.7471 20.7167 71.2637 23.2167 68.2971 24.45V24.65L73.6471 35.8C73.9471 36.6 73.6637 37 72.7971 37H68.7471C68.1471 37 67.7137 36.9333 67.4471 36.8C67.1804 36.6667 66.9637 36.3833 66.7971 35.95L61.7971 25.15H58.4471C58.0471 25.15 57.8471 25.3333 57.8471 25.7V35.95C57.8471 36.65 57.4971 37 56.7971 37ZM58.3971 20.05H63.2971C64.3637 20.05 65.1471 19.8333 65.6471 19.4C66.1471 18.9333 66.3971 18.2 66.3971 17.2V13.3C66.3971 12.2667 66.1471 11.5167 65.6471 11.05C65.1471 10.5833 64.3637 10.35 63.2971 10.35H58.3971C58.0304 10.35 57.8471 10.5333 57.8471 10.9V19.5C57.8471 19.8667 58.0304 20.05 58.3971 20.05ZM100.191 4.85H107.591C108.291 4.85 108.641 5.2 108.641 5.9V35.95C108.641 36.65 108.291 37 107.591 37H103.491C102.791 37 102.441 36.65 102.441 35.95V12.25H102.241L97.1408 29C96.9408 29.6667 96.5242 30 95.8908 30H91.6908C91.0575 30 90.6408 29.6667 90.4408 29L85.2408 12.2H85.0408V35.95C85.0408 36.35 84.9742 36.6333 84.8408 36.8C84.7075 36.9333 84.4242 37 83.9908 37H79.8908C79.1908 37 78.8408 36.65 78.8408 35.95V5.9C78.8408 5.2 79.1908 4.85 79.8908 4.85H87.3408C87.8075 4.85 88.1242 5.08333 88.2908 5.55L93.5908 23.2H93.8908L99.2408 5.55C99.3408 5.08333 99.6575 4.85 100.191 4.85ZM114.87 7.2V2.85C114.87 2.18333 115.203 1.85 115.87 1.85H120.22C120.887 1.85 121.22 2.16667 121.22 2.8V7.2C121.22 7.86667 120.887 8.2 120.22 8.2H115.87C115.203 8.2 114.87 7.86667 114.87 7.2ZM114.87 35.95V12.55C114.87 11.85 115.203 11.5 115.87 11.5H120.17C120.87 11.5 121.22 11.85 121.22 12.55V35.95C121.22 36.3833 121.137 36.6667 120.97 36.8C120.837 36.9333 120.587 37 120.22 37H115.92C115.22 37 114.87 36.65 114.87 35.95ZM132.274 37H128.024C127.324 37 126.974 36.65 126.974 35.95V12.55C126.974 11.85 127.324 11.5 128.024 11.5H132.274C132.974 11.5 133.324 11.85 133.324 12.55V14.2H133.524C134.257 12.4 135.89 11.5 138.424 11.5H140.024C145.257 11.5 147.874 14.2167 147.874 19.65V35.95C147.874 36.65 147.507 37 146.774 37H142.574C141.874 37 141.524 36.65 141.524 35.95V19.95C141.524 18.8833 141.29 18.1333 140.824 17.7C140.39 17.2333 139.64 17 138.574 17H136.774C134.474 17 133.324 18.2667 133.324 20.8V35.95C133.324 36.65 132.974 37 132.274 37ZM162.096 37H160.896C158.262 37 156.229 36.3 154.796 34.9C153.362 33.5 152.646 31.4833 152.646 28.85V19.65C152.646 17.0167 153.362 15 154.796 13.6C156.229 12.2 158.262 11.5 160.896 11.5H172.446C173.179 11.5 173.546 11.85 173.546 12.55V35.95C173.546 36.65 173.179 37 172.446 37H168.246C167.546 37 167.196 36.65 167.196 35.95V34.3H166.996C166.629 35.2 165.979 35.8833 165.046 36.35C164.112 36.7833 163.129 37 162.096 37ZM167.196 27.7V17.55C167.196 17.1833 166.996 17 166.596 17H161.896C160.829 17 160.079 17.2333 159.646 17.7C159.212 18.1333 158.996 18.8833 158.996 19.95V28.55C158.996 29.6167 159.212 30.3833 159.646 30.85C160.079 31.2833 160.829 31.5 161.896 31.5H163.746C166.046 31.5 167.196 30.2333 167.196 27.7ZM184.574 37H180.324C179.624 37 179.274 36.65 179.274 35.95V2.9C179.274 2.2 179.624 1.85 180.324 1.85H184.574C185.274 1.85 185.624 2.2 185.624 2.9V35.95C185.624 36.65 185.274 37 184.574 37Z" fill="white"/>
<path d="M14.5721 37V36H10.3721V37V38H14.5721V37ZM10.3721 37V36C10.2652 36 10.2111 35.9869 10.194 35.9814C10.1812 35.9774 10.2049 35.983 10.2375 36.0141C10.2526 36.0285 10.2647 36.0438 10.2734 36.0577C10.2819 36.0712 10.2849 36.0797 10.2849 36.0797C10.2843 36.0778 10.2721 36.0405 10.2721 35.95H9.27207H8.27207C8.27207 36.4663 8.40965 37.0342 8.85659 37.4609C9.29484 37.8792 9.86258 38 10.3721 38V37ZM9.27207 35.95H10.2721V10.9H9.27207H8.27207V35.95H9.27207ZM9.27207 10.9H10.2721C10.2721 10.5625 10.187 10.1257 9.84168 9.78039C9.49633 9.43505 9.05955 9.35 8.72207 9.35V10.35V11.35C8.75126 11.35 8.58948 11.3566 8.42746 11.1946C8.26545 11.0326 8.27207 10.8708 8.27207 10.9H9.27207ZM8.72207 10.35V9.35H3.02207V10.35V11.35H8.72207V10.35ZM3.02207 10.35V9.35C2.92742 9.35 2.88531 9.33782 2.87892 9.33569C2.87673 9.33496 2.88382 9.33711 2.89672 9.34485C2.90998 9.3528 2.92585 9.36457 2.94168 9.38039C2.9575 9.39621 2.96926 9.41209 2.97722 9.42535C2.98496 9.43825 2.98711 9.44534 2.98638 9.44315C2.98425 9.43676 2.97207 9.39465 2.97207 9.3H1.97207H0.972071C0.972071 9.80414 1.09878 10.3659 1.52746 10.7946C1.95614 11.2233 2.51793 11.35 3.02207 11.35V10.35ZM1.97207 9.3H2.97207V5.9H1.97207H0.972071V9.3H1.97207ZM1.97207 5.9H2.97207C2.97207 5.80535 2.98425 5.76324 2.98638 5.75685C2.98711 5.75466 2.98496 5.76175 2.97722 5.77465C2.96926 5.78791 2.9575 5.80378 2.94168 5.81961C2.92585 5.83543 2.90998 5.84719 2.89672 5.85515C2.88382 5.86289 2.87673 5.86504 2.87892 5.86431C2.88531 5.86218 2.92742 5.85 3.02207 5.85V4.85V3.85C2.51793 3.85 1.95614 3.97671 1.52746 4.40539C1.09878 4.83407 0.972071 5.39585 0.972071 5.9H1.97207ZM3.02207 4.85V5.85H21.9221V4.85V3.85H3.02207V4.85ZM21.9221 4.85V5.85C22.0167 5.85 22.0588 5.86218 22.0652 5.86431C22.0674 5.86504 22.0603 5.86289 22.0474 5.85515C22.0342 5.84719 22.0183 5.83543 22.0025 5.81961C21.9866 5.80378 21.9749 5.78791 21.9669 5.77465C21.9592 5.76175 21.957 5.75466 21.9578 5.75685C21.9599 5.76324 21.9721 5.80535 21.9721 5.9H22.9721H23.9721C23.9721 5.39585 23.8454 4.83407 23.4167 4.40539C22.988 3.97671 22.4262 3.85 21.9221 3.85V4.85ZM22.9721 5.9H21.9721V9.3H22.9721H23.9721V5.9H22.9721ZM22.9721 9.3H21.9721C21.9721 9.39465 21.9599 9.43676 21.9578 9.44315C21.957 9.44534 21.9592 9.43825 21.9669 9.42535C21.9749 9.41209 21.9866 9.39621 22.0025 9.38039C22.0183 9.36457 22.0342 9.3528 22.0474 9.34485C22.0603 9.33711 22.0674 9.33496 22.0652 9.33569C22.0588 9.33782 22.0167 9.35 21.9221 9.35V10.35V11.35C22.4262 11.35 22.988 11.2233 23.4167 10.7946C23.8454 10.3659 23.9721 9.80414 23.9721 9.3H22.9721ZM21.9221 10.35V9.35H16.2221V10.35V11.35H21.9221V10.35ZM16.2221 10.35V9.35C15.8884 9.35 15.4517 9.42461 15.0963 9.75035C14.7245 10.0912 14.6221 10.5391 14.6221 10.9H15.6221H16.6221C16.6221 10.8943 16.6196 11.0672 16.4478 11.2247C16.2925 11.3671 16.1557 11.35 16.2221 11.35V10.35ZM15.6221 10.9H14.6221V35.95H15.6221H16.6221V10.9H15.6221ZM15.6221 35.95H14.6221C14.6221 36.0447 14.6099 36.0868 14.6078 36.0931C14.607 36.0953 14.6092 36.0882 14.6169 36.0753C14.6249 36.0621 14.6366 36.0462 14.6525 36.0304C14.6683 36.0146 14.6842 36.0028 14.6974 35.9949C14.7103 35.9871 14.7174 35.985 14.7152 35.9857C14.7088 35.9878 14.6667 36 14.5721 36V37V38C15.0762 38 15.638 37.8733 16.0667 37.4446C16.4954 37.0159 16.6221 36.4541 16.6221 35.95H15.6221ZM27.94 34.9L27.2413 35.6154L27.94 34.9ZM27.94 13.6L28.6388 14.3154L27.94 13.6ZM44.09 13.6L43.3913 14.3154L44.09 13.6ZM32.69 30.95L31.9572 31.6305L31.9824 31.6576L32.0096 31.6828L32.69 30.95ZM45.89 36.8L46.5971 37.5071H46.5971L45.89 36.8ZM39.34 17.6L38.6329 18.3071V18.3071L39.34 17.6ZM32.74 17.6L33.4471 18.3071V18.3071L32.74 17.6ZM45.09 37V36H34.04V37V38H45.09V37ZM34.04 37V36C31.5829 36 29.8323 35.3504 28.6388 34.1846L27.94 34.9L27.2413 35.6154C28.9145 37.2496 31.2305 38 34.04 38V37ZM27.94 34.9L28.6388 34.1846C27.4532 33.0266 26.79 31.3022 26.79 28.85H25.79H24.79C24.79 31.6644 25.5602 33.9734 27.2413 35.6154L27.94 34.9ZM25.79 28.85H26.79V19.65H25.79H24.79V28.85H25.79ZM25.79 19.65H26.79C26.79 17.1978 27.4532 15.4734 28.6388 14.3154L27.94 13.6L27.2413 12.8846C25.5602 14.5266 24.79 16.8356 24.79 19.65H25.79ZM27.94 13.6L28.6388 14.3154C29.8323 13.1496 31.5829 12.5 34.04 12.5V11.5V10.5C31.2305 10.5 28.9145 11.2504 27.2413 12.8846L27.94 13.6ZM34.04 11.5V12.5H37.99V11.5V10.5H34.04V11.5ZM37.99 11.5V12.5C40.4471 12.5 42.1978 13.1496 43.3913 14.3154L44.09 13.6L44.7888 12.8846C43.1156 11.2504 40.7996 10.5 37.99 10.5V11.5ZM44.09 13.6L43.3913 14.3154C44.5769 15.4734 45.24 17.1978 45.24 19.65H46.24H47.24C47.24 16.8356 46.4698 14.5266 44.7888 12.8846L44.09 13.6ZM46.24 19.65H45.24V26H46.24H47.24V19.65H46.24ZM46.24 26H45.24C45.24 26.0947 45.2279 26.1368 45.2257 26.1431C45.225 26.1453 45.2271 26.1382 45.2349 26.1253C45.2428 26.1121 45.2546 26.0962 45.2704 26.0804C45.2863 26.0646 45.3021 26.0528 45.3154 26.0448C45.3283 26.0371 45.3354 26.035 45.3332 26.0357C45.3268 26.0378 45.2847 26.05 45.19 26.05V27.05V28.05C45.6942 28.05 46.256 27.9233 46.6846 27.4946C47.1133 27.0659 47.24 26.5041 47.24 26H46.24ZM45.19 27.05V26.05H32.64V27.05V28.05H45.19V27.05ZM32.64 27.05V26.05C32.3064 26.05 31.8697 26.1246 31.5143 26.4503C31.1425 26.7912 31.04 27.2391 31.04 27.6H32.04H33.04C33.04 27.5943 33.0376 27.7672 32.8658 27.9247C32.7104 28.0671 32.5737 28.05 32.64 28.05V27.05ZM32.04 27.6H31.04V28.7H32.04H33.04V27.6H32.04ZM32.04 28.7H31.04C31.04 29.837 31.2724 30.8929 31.9572 31.6305L32.69 30.95L33.4228 30.2695C33.241 30.0737 33.04 29.6296 33.04 28.7H32.04ZM32.69 30.95L32.0096 31.6828C32.7517 32.3719 33.83 32.6 34.99 32.6V31.6V30.6C34.0168 30.6 33.5617 30.3948 33.3705 30.2172L32.69 30.95ZM34.99 31.6V32.6H45.09V31.6V30.6H34.99V31.6ZM45.09 31.6V32.6C45.1806 32.6 45.2178 32.6122 45.2197 32.6128C45.2198 32.6129 45.2113 32.6098 45.1977 32.6013C45.1838 32.5926 45.1686 32.5806 45.1542 32.5655C45.123 32.5328 45.1174 32.5092 45.1215 32.522C45.1269 32.539 45.14 32.5931 45.14 32.7H46.14H47.14C47.14 32.1905 47.0192 31.6228 46.6009 31.1845C46.1743 30.7376 45.6063 30.6 45.09 30.6V31.6ZM46.14 32.7H45.14V36H46.14H47.14V32.7H46.14ZM46.14 36H45.14C45.14 36.1119 45.1268 36.1647 45.1231 36.1767C45.1207 36.1843 45.1326 36.1432 45.1829 36.0929L45.89 36.8L46.5971 37.5071C47.033 37.0713 47.14 36.4884 47.14 36H46.14ZM45.89 36.8L45.1829 36.0929C45.2382 36.0376 45.2891 36.0075 45.3178 35.9931C45.3459 35.979 45.3588 35.977 45.3475 35.9799C45.3367 35.9826 45.3107 35.9879 45.2655 35.9925C45.2209 35.9969 45.163 36 45.09 36V37V38C45.3383 38 45.5929 37.9801 45.8326 37.9201C46.0662 37.8617 46.3566 37.7476 46.5971 37.5071L45.89 36.8ZM32.64 22.8V23.8H39.44V22.8V21.8H32.64V22.8ZM39.44 22.8V23.8C39.7775 23.8 40.2143 23.715 40.5596 23.3696C40.905 23.0243 40.99 22.5875 40.99 22.25H39.99H38.99C38.99 22.2792 38.9834 22.1174 39.1454 21.9554C39.3074 21.7934 39.4692 21.8 39.44 21.8V22.8ZM39.99 22.25H40.99V19.85H39.99H38.99V22.25H39.99ZM39.99 19.85H40.99C40.99 18.7003 40.7662 17.612 40.0471 16.8929L39.34 17.6L38.6329 18.3071C38.7805 18.4547 38.99 18.8664 38.99 19.85H39.99ZM39.34 17.6L40.0471 16.8929C39.3281 16.1738 38.2398 15.95 37.09 15.95V16.95V17.95C38.0736 17.95 38.4854 18.1595 38.6329 18.3071L39.34 17.6ZM37.09 16.95V15.95H34.99V16.95V17.95H37.09V16.95ZM34.99 16.95V15.95C33.8403 15.95 32.752 16.1738 32.0329 16.8929L32.74 17.6L33.4471 18.3071C33.5947 18.1595 34.0064 17.95 34.99 17.95V16.95ZM32.74 17.6L32.0329 16.8929C31.3138 17.612 31.09 18.7003 31.09 19.85H32.09H33.09C33.09 18.8664 33.2996 18.4547 33.4471 18.3071L32.74 17.6ZM32.09 19.85H31.09V22.25H32.09H33.09V19.85H32.09ZM32.09 22.25H31.09C31.09 22.5875 31.1751 23.0243 31.5204 23.3696C31.8658 23.715 32.3026 23.8 32.64 23.8V22.8V21.8C32.6109 21.8 32.7726 21.7934 32.9346 21.9554C33.0967 22.1174 33.09 22.2792 33.09 22.25H32.09ZM68.2971 24.45L67.9132 23.5266L67.2971 23.7828V24.45H68.2971ZM68.2971 24.65H67.2971V24.8775L67.3955 25.0826L68.2971 24.65ZM73.6471 35.8L74.5834 35.4489L74.5678 35.4074L74.5487 35.3674L73.6471 35.8ZM67.4471 36.8L66.9999 37.6944L67.4471 36.8ZM66.7971 35.95L67.7304 35.591L67.7185 35.56L67.7045 35.5299L66.7971 35.95ZM61.7971 25.15L62.7045 24.7299L62.4361 24.15H61.7971V25.15ZM65.6471 19.4L66.302 20.1557L66.3159 20.1436L66.3294 20.1311L65.6471 19.4ZM65.6471 11.05L66.3294 10.3189V10.3189L65.6471 11.05ZM56.7971 37V36H52.5471V37V38H56.7971V37ZM52.5471 37V36C52.4524 36 52.4103 35.9878 52.4039 35.9857C52.4017 35.985 52.4088 35.9871 52.4217 35.9949C52.435 36.0028 52.4509 36.0146 52.4667 36.0304C52.4825 36.0462 52.4943 36.0621 52.5022 36.0753C52.51 36.0882 52.5121 36.0953 52.5114 36.0931C52.5093 36.0868 52.4971 36.0447 52.4971 35.95H51.4971H50.4971C50.4971 36.4541 50.6238 37.0159 51.0525 37.4446C51.4811 37.8733 52.0429 38 52.5471 38V37ZM51.4971 35.95H52.4971V5.9H51.4971H50.4971V35.95H51.4971ZM51.4971 5.9H52.4971C52.4971 5.80535 52.5093 5.76324 52.5114 5.75685C52.5121 5.75466 52.51 5.76175 52.5022 5.77465C52.4943 5.78791 52.4825 5.80378 52.4667 5.81961C52.4509 5.83543 52.435 5.84719 52.4217 5.85515C52.4088 5.86289 52.4017 5.86504 52.4039 5.86431C52.4103 5.86218 52.4524 5.85 52.5471 5.85V4.85V3.85C52.0429 3.85 51.4811 3.97671 51.0525 4.40539C50.6238 4.83407 50.4971 5.39585 50.4971 5.9H51.4971ZM52.5471 4.85V5.85H64.4471V4.85V3.85H52.5471V4.85ZM64.4471 4.85V5.85C66.8591 5.85 68.6149 6.50996 69.8481 7.71519L70.5471 7L71.246 6.28481C69.5459 4.62337 67.235 3.85 64.4471 3.85V4.85ZM70.5471 7L69.8481 7.71519C71.0739 8.91312 71.7471 10.6431 71.7471 13.05H72.7471H73.7471C73.7471 10.2569 72.9535 7.95354 71.246 6.28481L70.5471 7ZM72.7471 13.05H71.7471V16.95H72.7471H73.7471V13.05H72.7471ZM72.7471 16.95H71.7471C71.7471 18.7057 71.4013 20.0835 70.7746 21.1397C70.1545 22.1847 69.2195 22.9835 67.9132 23.5266L68.2971 24.45L68.6809 25.3734C70.3413 24.6831 71.6313 23.6153 72.4946 22.1603C73.3512 20.7165 73.7471 18.9609 73.7471 16.95H72.7471ZM68.2971 24.45H67.2971V24.65H68.2971H69.2971V24.45H68.2971ZM68.2971 24.65L67.3955 25.0826L72.7455 36.2326L73.6471 35.8L74.5487 35.3674L69.1987 24.2174L68.2971 24.65ZM73.6471 35.8L72.7107 36.1511C72.7347 36.2149 72.7483 36.2629 72.7556 36.2963C72.7631 36.3301 72.7628 36.3431 72.7628 36.3389C72.7627 36.3341 72.7629 36.3074 72.7743 36.2661C72.7861 36.223 72.8079 36.1722 72.8435 36.122C72.8791 36.0718 72.9188 36.0356 72.953 36.0116C72.9858 35.9887 73.008 35.9809 73.0092 35.9805C73.01 35.9802 72.9945 35.9856 72.9573 35.9907C72.9204 35.9959 72.8678 36 72.7971 36V37V38C73.3121 38 74.0402 37.8927 74.4756 37.278C74.9162 36.6559 74.7644 35.9314 74.5834 35.4489L73.6471 35.8ZM72.7971 37V36H68.7471V37V38H72.7971V37ZM68.7471 37V36C68.4808 36 68.276 35.985 68.1241 35.9616C68.0491 35.9501 67.9931 35.9374 67.953 35.926C67.9333 35.9203 67.9188 35.9154 67.9088 35.9116C67.8987 35.9078 67.8942 35.9056 67.8943 35.9056L67.4471 36.8L66.9999 37.6944C67.486 37.9375 68.1184 38 68.7471 38V37ZM67.4471 36.8L67.8943 35.9056C67.9211 35.919 67.9128 35.9244 67.8789 35.8801C67.8429 35.833 67.7892 35.7439 67.7304 35.591L66.7971 35.95L65.8637 36.309C66.072 36.8506 66.414 37.4015 66.9999 37.6944L67.4471 36.8ZM66.7971 35.95L67.7045 35.5299L62.7045 24.7299L61.7971 25.15L60.8896 25.5701L65.8896 36.3701L66.7971 35.95ZM61.7971 25.15V24.15H58.4471V25.15V26.15H61.7971V25.15ZM58.4471 25.15V24.15C58.1134 24.15 57.6767 24.2246 57.3213 24.5503C56.9495 24.8912 56.8471 25.3391 56.8471 25.7H57.8471H58.8471C58.8471 25.6943 58.8446 25.8672 58.6728 26.0247C58.5174 26.1671 58.3807 26.15 58.4471 26.15V25.15ZM57.8471 25.7H56.8471V35.95H57.8471H58.8471V25.7H57.8471ZM57.8471 35.95H56.8471C56.8471 36.0447 56.8349 36.0868 56.8328 36.0931C56.832 36.0953 56.8342 36.0882 56.8419 36.0753C56.8499 36.0621 56.8616 36.0462 56.8775 36.0304C56.8933 36.0146 56.9092 36.0028 56.9224 35.9949C56.9353 35.9871 56.9424 35.985 56.9402 35.9857C56.9338 35.9878 56.8917 36 56.7971 36V37V38C57.3012 38 57.863 37.8733 58.2917 37.4446C58.7204 37.0159 58.8471 36.4541 58.8471 35.95H57.8471ZM58.3971 20.05V21.05H63.2971V20.05V19.05H58.3971V20.05ZM63.2971 20.05V21.05C64.4659 21.05 65.5375 20.8183 66.302 20.1557L65.6471 19.4L64.9921 18.6443C64.7567 18.8484 64.2616 19.05 63.2971 19.05V20.05ZM65.6471 19.4L66.3294 20.1311C67.1103 19.4022 67.3971 18.3479 67.3971 17.2H66.3971H65.3971C65.3971 18.0521 65.1838 18.4645 64.9648 18.6689L65.6471 19.4ZM66.3971 17.2H67.3971V13.3H66.3971H65.3971V17.2H66.3971ZM66.3971 13.3H67.3971C67.3971 12.1305 67.1161 11.0532 66.3294 10.3189L65.6471 11.05L64.9648 11.7811C65.178 11.9801 65.3971 12.4028 65.3971 13.3H66.3971ZM65.6471 11.05L66.3294 10.3189C65.5641 9.60465 64.4806 9.35 63.2971 9.35V10.35V11.35C64.2469 11.35 64.7301 11.562 64.9648 11.7811L65.6471 11.05ZM63.2971 10.35V9.35H58.3971V10.35V11.35H63.2971V10.35ZM58.3971 10.35V9.35C58.0596 9.35 57.6228 9.43505 57.2775 9.78039C56.9321 10.1257 56.8471 10.5625 56.8471 10.9H57.8471H58.8471C58.8471 10.8708 58.8537 11.0326 58.6917 11.1946C58.5297 11.3566 58.3679 11.35 58.3971 11.35V10.35ZM57.8471 10.9H56.8471V19.5H57.8471H58.8471V10.9H57.8471ZM57.8471 19.5H56.8471C56.8471 19.8375 56.9321 20.2743 57.2775 20.6196C57.6228 20.965 58.0596 21.05 58.3971 21.05V20.05V19.05C58.3679 19.05 58.5297 19.0434 58.6917 19.2054C58.8537 19.3674 58.8471 19.5292 58.8471 19.5H57.8471ZM102.441 12.25H103.441V11.25H102.441V12.25ZM102.241 12.25V11.25H101.5L101.284 11.9587L102.241 12.25ZM97.1408 29L96.1842 28.7087L96.183 28.7127L97.1408 29ZM90.4408 29L91.3987 28.7126L91.3961 28.7043L90.4408 29ZM85.2408 12.2L86.1961 11.9043L85.9781 11.2H85.2408V12.2ZM85.0408 12.2V11.2H84.0408V12.2H85.0408ZM84.8408 36.8L85.5479 37.5071L85.5871 37.4679L85.6217 37.4247L84.8408 36.8ZM88.2908 5.55L89.2486 5.2624L89.2412 5.23783L89.2326 5.21366L88.2908 5.55ZM93.5908 23.2L92.6331 23.4876L92.847 24.2H93.5908V23.2ZM93.8908 23.2V24.2H94.6326L94.8478 23.4901L93.8908 23.2ZM99.2408 5.55L100.198 5.84008L100.21 5.80024L100.219 5.75953L99.2408 5.55ZM100.191 4.85V5.85H107.591V4.85V3.85H100.191V4.85ZM107.591 4.85V5.85C107.685 5.85 107.728 5.86218 107.734 5.86431C107.736 5.86504 107.729 5.86289 107.716 5.85515C107.703 5.84719 107.687 5.83543 107.671 5.81961C107.655 5.80378 107.644 5.78791 107.636 5.77465C107.628 5.76175 107.626 5.75466 107.627 5.75685C107.629 5.76324 107.641 5.80535 107.641 5.9H108.641H109.641C109.641 5.39585 109.514 4.83407 109.085 4.40539C108.657 3.97671 108.095 3.85 107.591 3.85V4.85ZM108.641 5.9H107.641V35.95H108.641H109.641V5.9H108.641ZM108.641 35.95H107.641C107.641 36.0447 107.629 36.0868 107.627 36.0931C107.626 36.0953 107.628 36.0882 107.636 36.0753C107.644 36.0621 107.655 36.0462 107.671 36.0304C107.687 36.0146 107.703 36.0028 107.716 35.9949C107.729 35.9871 107.736 35.985 107.734 35.9857C107.728 35.9878 107.685 36 107.591 36V37V38C108.095 38 108.657 37.8733 109.085 37.4446C109.514 37.0159 109.641 36.4541 109.641 35.95H108.641ZM107.591 37V36H103.491V37V38H107.591V37ZM103.491 37V36C103.396 36 103.354 35.9878 103.348 35.9857C103.345 35.985 103.353 35.9871 103.365 35.9949C103.379 36.0028 103.395 36.0146 103.41 36.0304C103.426 36.0462 103.438 36.0621 103.446 36.0753C103.454 36.0882 103.456 36.0953 103.455 36.0931C103.453 36.0868 103.441 36.0447 103.441 35.95H102.441H101.441C101.441 36.4541 101.568 37.0159 101.996 37.4446C102.425 37.8733 102.987 38 103.491 38V37ZM102.441 35.95H103.441V12.25H102.441H101.441V35.95H102.441ZM102.441 12.25V11.25H102.241V12.25V13.25H102.441V12.25ZM102.241 12.25L101.284 11.9587L96.1842 28.7087L97.1408 29L98.0975 29.2913L103.197 12.5413L102.241 12.25ZM97.1408 29L96.183 28.7127C96.1237 28.9102 96.0615 28.9629 96.0536 28.9691C96.0484 28.9733 96.0407 28.9786 96.0226 28.9844C96.0026 28.9907 95.9616 29 95.8908 29V30V31C96.3904 31 96.8857 30.8647 97.303 30.5309C97.7119 30.2038 97.9579 29.7565 98.0986 29.2873L97.1408 29ZM95.8908 30V29H91.6908V30V31H95.8908V30ZM91.6908 30V29C91.6201 29 91.579 28.9907 91.559 28.9844C91.541 28.9786 91.5332 28.9733 91.528 28.9691C91.5202 28.9629 91.4579 28.9102 91.3987 28.7127L90.4408 29L89.483 29.2873C89.6237 29.7565 89.8698 30.2038 90.2786 30.5309C90.6959 30.8647 91.1912 31 91.6908 31V30ZM90.4408 29L91.3961 28.7043L86.1961 11.9043L85.2408 12.2L84.2855 12.4957L89.4855 29.2957L90.4408 29ZM85.2408 12.2V11.2H85.0408V12.2V13.2H85.2408V12.2ZM85.0408 12.2H84.0408V35.95H85.0408H86.0408V12.2H85.0408ZM85.0408 35.95H84.0408C84.0408 36.0994 84.0279 36.1889 84.0174 36.2335C84.0064 36.2803 84.0065 36.2421 84.06 36.1753L84.8408 36.8L85.6217 37.4247C85.9763 36.9814 86.0408 36.4045 86.0408 35.95H85.0408ZM84.8408 36.8L84.1337 36.0929C84.1959 36.0307 84.2524 35.9992 84.28 35.986C84.3072 35.9729 84.317 35.9724 84.2993 35.9766C84.2824 35.9806 84.249 35.9868 84.1951 35.9918C84.1417 35.9968 84.0742 36 83.9908 36V37V38C84.251 38 84.5138 37.9807 84.7574 37.9234C84.9894 37.8688 85.2966 37.7584 85.5479 37.5071L84.8408 36.8ZM83.9908 37V36H79.8908V37V38H83.9908V37ZM79.8908 37V36C79.7962 36 79.7541 35.9878 79.7477 35.9857C79.7455 35.985 79.7526 35.9871 79.7655 35.9949C79.7787 36.0028 79.7946 36.0146 79.8104 36.0304C79.8262 36.0462 79.838 36.0621 79.846 36.0753C79.8537 36.0882 79.8559 36.0953 79.8551 36.0931C79.853 36.0868 79.8408 36.0447 79.8408 35.95H78.8408H77.8408C77.8408 36.4541 77.9675 37.0159 78.3962 37.4446C78.8249 37.8733 79.3867 38 79.8908 38V37ZM78.8408 35.95H79.8408V5.9H78.8408H77.8408V35.95H78.8408ZM78.8408 5.9H79.8408C79.8408 5.80535 79.853 5.76324 79.8551 5.75685C79.8559 5.75466 79.8537 5.76175 79.846 5.77465C79.838 5.78791 79.8262 5.80378 79.8104 5.81961C79.7946 5.83543 79.7787 5.84719 79.7655 5.85515C79.7526 5.86289 79.7455 5.86504 79.7477 5.86431C79.7541 5.86218 79.7962 5.85 79.8908 5.85V4.85V3.85C79.3867 3.85 78.8249 3.97671 78.3962 4.40539C77.9675 4.83407 77.8408 5.39585 77.8408 5.9H78.8408ZM79.8908 4.85V5.85H87.3408V4.85V3.85H79.8908V4.85ZM87.3408 4.85V5.85C87.3743 5.85 87.384 5.85416 87.3772 5.85214C87.3739 5.85114 87.3677 5.84897 87.3596 5.84496C87.3514 5.84093 87.343 5.83588 87.3351 5.83006C87.3272 5.82425 87.3214 5.81885 87.3176 5.81489C87.3139 5.81102 87.3132 5.80956 87.3148 5.81194C87.3183 5.81701 87.332 5.83864 87.3491 5.88634L88.2908 5.55L89.2326 5.21366C89.0997 4.84159 88.8772 4.48203 88.5215 4.21994C88.161 3.95432 87.7466 3.85 87.3408 3.85V4.85ZM88.2908 5.55L87.3331 5.8376L92.6331 23.4876L93.5908 23.2L94.5486 22.9124L89.2486 5.2624L88.2908 5.55ZM93.5908 23.2V24.2H93.8908V23.2V22.2H93.5908V23.2ZM93.8908 23.2L94.8478 23.4901L100.198 5.84008L99.2408 5.55L98.2838 5.25992L92.9338 22.9099L93.8908 23.2ZM99.2408 5.55L100.219 5.75953C100.225 5.73144 100.228 5.73471 100.216 5.75523C100.21 5.76551 100.201 5.77847 100.188 5.7924C100.175 5.80639 100.161 5.81915 100.147 5.83006C100.116 5.85276 100.094 5.85865 100.096 5.85808C100.1 5.85693 100.129 5.85 100.191 5.85V4.85V3.85C99.7855 3.85 99.3421 3.93848 98.9601 4.21994C98.5653 4.51089 98.3528 4.92168 98.263 5.34047L99.2408 5.55ZM120.97 36.8L120.345 36.0191L120.302 36.0537L120.263 36.0929L120.97 36.8ZM114.87 7.2H115.87V2.85H114.87H113.87V7.2H114.87ZM114.87 2.85H115.87C115.87 2.80795 115.873 2.7775 115.876 2.75705C115.879 2.73667 115.882 2.72811 115.881 2.72873C115.881 2.72966 115.878 2.73962 115.868 2.75512C115.864 2.76278 115.858 2.77132 115.851 2.78035C115.844 2.78938 115.836 2.79839 115.827 2.80711C115.819 2.81582 115.81 2.82373 115.8 2.83076C115.791 2.83778 115.783 2.84352 115.775 2.84812C115.76 2.85742 115.75 2.86087 115.749 2.86118C115.748 2.86139 115.757 2.85848 115.777 2.85557C115.798 2.85265 115.828 2.85 115.87 2.85V1.85V0.849999C115.383 0.849999 114.833 0.972547 114.413 1.39289C113.993 1.81324 113.87 2.36252 113.87 2.85H114.87ZM115.87 1.85V2.85H120.22V1.85V0.849999H115.87V1.85ZM120.22 1.85V2.85C120.264 2.85 120.297 2.85264 120.32 2.85576C120.343 2.85887 120.354 2.86217 120.356 2.86272C120.357 2.86318 120.349 2.86069 120.334 2.85237C120.319 2.84384 120.301 2.83082 120.281 2.8125C120.262 2.7941 120.246 2.77422 120.234 2.75509C120.222 2.73626 120.216 2.7219 120.214 2.71546C120.212 2.70938 120.214 2.71198 120.216 2.72605C120.218 2.74024 120.22 2.76431 120.22 2.8H121.22H122.22C122.22 2.31573 122.09 1.7722 121.659 1.3625C121.237 0.96192 120.695 0.849999 120.22 0.849999V1.85ZM121.22 2.8H120.22V7.2H121.22H122.22V2.8H121.22ZM121.22 7.2H120.22C120.22 7.24205 120.217 7.2725 120.215 7.29295C120.212 7.31333 120.209 7.32189 120.209 7.32127C120.209 7.32034 120.213 7.31038 120.222 7.29488C120.227 7.28722 120.232 7.27868 120.239 7.26965C120.246 7.26061 120.254 7.25161 120.263 7.24289C120.272 7.23418 120.281 7.22627 120.29 7.21924C120.299 7.21222 120.307 7.20648 120.315 7.20188C120.331 7.19258 120.34 7.18913 120.341 7.18881C120.342 7.18861 120.333 7.19151 120.313 7.19442C120.293 7.19735 120.262 7.2 120.22 7.2V8.2V9.2C120.708 9.2 121.257 9.07745 121.677 8.65711C122.098 8.23676 122.22 7.68748 122.22 7.2H121.22ZM120.22 8.2V7.2H115.87V8.2V9.2H120.22V8.2ZM115.87 8.2V7.2C115.828 7.2 115.798 7.19735 115.777 7.19442C115.757 7.19151 115.748 7.18861 115.749 7.18881C115.75 7.18913 115.76 7.19258 115.775 7.20188C115.783 7.20648 115.791 7.21222 115.8 7.21924C115.81 7.22627 115.819 7.23418 115.827 7.24289C115.836 7.25161 115.844 7.26061 115.851 7.26965C115.858 7.27868 115.864 7.28721 115.868 7.29488C115.878 7.31038 115.881 7.32034 115.881 7.32127C115.882 7.32189 115.879 7.31333 115.876 7.29295C115.873 7.2725 115.87 7.24205 115.87 7.2H114.87H113.87C113.87 7.68748 113.993 8.23676 114.413 8.65711C114.833 9.07745 115.383 9.2 115.87 9.2V8.2ZM114.87 35.95H115.87V12.55H114.87H113.87V35.95H114.87ZM114.87 12.55H115.87C115.87 12.5018 115.873 12.4652 115.877 12.4387C115.88 12.4123 115.884 12.3979 115.886 12.3932C115.887 12.3887 115.886 12.3943 115.879 12.4063C115.872 12.4187 115.861 12.435 115.844 12.4522C115.828 12.4694 115.81 12.4833 115.794 12.4937C115.778 12.5039 115.766 12.5084 115.763 12.5095C115.76 12.5105 115.766 12.508 115.784 12.5053C115.802 12.5026 115.83 12.5 115.87 12.5V11.5V10.5C115.37 10.5 114.814 10.6338 114.396 11.0728C113.986 11.5028 113.87 12.0577 113.87 12.55H114.87ZM115.87 11.5V12.5H120.17V11.5V10.5H115.87V11.5ZM120.17 11.5V12.5C120.265 12.5 120.307 12.5122 120.313 12.5143C120.315 12.515 120.308 12.5129 120.295 12.5051C120.282 12.4972 120.266 12.4854 120.251 12.4696C120.235 12.4538 120.223 12.4379 120.215 12.4247C120.207 12.4117 120.205 12.4047 120.206 12.4069C120.208 12.4132 120.22 12.4553 120.22 12.55H121.22H122.22C122.22 12.0459 122.093 11.4841 121.665 11.0554C121.236 10.6267 120.674 10.5 120.17 10.5V11.5ZM121.22 12.55H120.22V35.95H121.22H122.22V12.55H121.22ZM121.22 35.95H120.22C120.22 36.0271 120.216 36.0868 120.211 36.1314C120.206 36.1764 120.2 36.1994 120.198 36.2053C120.193 36.2237 120.218 36.1211 120.345 36.0191L120.97 36.8L121.595 37.5809C121.889 37.3455 122.039 37.0346 122.117 36.7697C122.195 36.5045 122.22 36.222 122.22 35.95H121.22ZM120.97 36.8L120.263 36.0929C120.311 36.0447 120.356 36.0162 120.386 36.0009C120.414 35.986 120.43 35.9825 120.425 35.9838C120.42 35.985 120.402 35.9894 120.366 35.9933C120.33 35.9971 120.282 36 120.22 36V37V38C120.632 38 121.243 37.9409 121.677 37.5071L120.97 36.8ZM120.22 37V36H115.92V37V38H120.22V37ZM115.92 37V36C115.825 36 115.783 35.9878 115.777 35.9857C115.775 35.985 115.782 35.9871 115.795 35.9949C115.808 36.0028 115.824 36.0146 115.84 36.0304C115.856 36.0462 115.867 36.0621 115.875 36.0753C115.883 36.0882 115.885 36.0953 115.884 36.0931C115.882 36.0868 115.87 36.0447 115.87 35.95H114.87H113.87C113.87 36.4541 113.997 37.0159 114.426 37.4446C114.854 37.8733 115.416 38 115.92 38V37ZM133.324 14.2H132.324V15.2H133.324V14.2ZM133.524 14.2V15.2H134.196L134.45 14.5773L133.524 14.2ZM140.824 17.7L140.091 18.3805L140.116 18.4076L140.143 18.4328L140.824 17.7ZM132.274 37V36H128.024V37V38H132.274V37ZM128.024 37V36C127.929 36 127.887 35.9878 127.88 35.9857C127.878 35.985 127.885 35.9871 127.898 35.9949C127.912 36.0028 127.927 36.0146 127.943 36.0304C127.959 36.0462 127.971 36.0621 127.979 36.0753C127.987 36.0882 127.989 36.0953 127.988 36.0931C127.986 36.0868 127.974 36.0447 127.974 35.95H126.974H125.974C125.974 36.4541 126.1 37.0159 126.529 37.4446C126.958 37.8733 127.519 38 128.024 38V37ZM126.974 35.95H127.974V12.55H126.974H125.974V35.95H126.974ZM126.974 12.55H127.974C127.974 12.4553 127.986 12.4132 127.988 12.4069C127.989 12.4047 127.987 12.4117 127.979 12.4247C127.971 12.4379 127.959 12.4538 127.943 12.4696C127.927 12.4854 127.912 12.4972 127.898 12.5051C127.885 12.5129 127.878 12.515 127.88 12.5143C127.887 12.5122 127.929 12.5 128.024 12.5V11.5V10.5C127.519 10.5 126.958 10.6267 126.529 11.0554C126.1 11.4841 125.974 12.0459 125.974 12.55H126.974ZM128.024 11.5V12.5H132.274V11.5V10.5H128.024V11.5ZM132.274 11.5V12.5C132.368 12.5 132.41 12.5122 132.417 12.5143C132.419 12.515 132.412 12.5129 132.399 12.5051C132.386 12.4972 132.37 12.4854 132.354 12.4696C132.338 12.4538 132.326 12.4379 132.318 12.4247C132.311 12.4117 132.309 12.4047 132.309 12.4069C132.311 12.4132 132.324 12.4553 132.324 12.55H133.324H134.324C134.324 12.0459 134.197 11.4841 133.768 11.0554C133.34 10.6267 132.778 10.5 132.274 10.5V11.5ZM133.324 12.55H132.324V14.2H133.324H134.324V12.55H133.324ZM133.324 14.2V15.2H133.524V14.2V13.2H133.324V14.2ZM133.524 14.2L134.45 14.5773C134.734 13.8797 135.174 13.3854 135.781 13.0508C136.407 12.7063 137.268 12.5 138.424 12.5V11.5V10.5C137.046 10.5 135.824 10.7437 134.816 11.2992C133.79 11.8646 133.047 12.7203 132.598 13.8227L133.524 14.2ZM138.424 11.5V12.5H140.024V11.5V10.5H138.424V11.5ZM140.024 11.5V12.5C142.476 12.5 144.135 13.1346 145.191 14.2312C146.254 15.3348 146.874 17.0783 146.874 19.65H147.874H148.874C148.874 16.7884 148.185 14.4568 146.631 12.8438C145.071 11.2237 142.804 10.5 140.024 10.5V11.5ZM147.874 19.65H146.874V35.95H147.874H148.874V19.65H147.874ZM147.874 35.95H146.874C146.874 36.0405 146.861 36.0778 146.861 36.0797C146.861 36.0797 146.864 36.0712 146.872 36.0577C146.881 36.0438 146.893 36.0285 146.908 36.0141C146.941 35.983 146.964 35.9774 146.952 35.9814C146.935 35.9869 146.881 36 146.774 36V37V38C147.283 38 147.851 37.8792 148.289 37.4609C148.736 37.0342 148.874 36.4663 148.874 35.95H147.874ZM146.774 37V36H142.574V37V38H146.774V37ZM142.574 37V36C142.479 36 142.437 35.9878 142.43 35.9857C142.428 35.985 142.435 35.9871 142.448 35.9949C142.462 36.0028 142.477 36.0146 142.493 36.0304C142.509 36.0462 142.521 36.0621 142.529 36.0753C142.537 36.0882 142.539 36.0953 142.538 36.0931C142.536 36.0868 142.524 36.0447 142.524 35.95H141.524H140.524C140.524 36.4541 140.65 37.0159 141.079 37.4446C141.508 37.8733 142.069 38 142.574 38V37ZM141.524 35.95H142.524V19.95H141.524H140.524V35.95H141.524ZM141.524 19.95H142.524C142.524 18.7844 142.276 17.6844 141.504 16.9672L140.824 17.7L140.143 18.4328C140.304 18.5823 140.524 18.9823 140.524 19.95H141.524ZM140.824 17.7L141.556 17.0195C140.839 16.2472 139.739 16 138.574 16V17V18C139.541 18 139.941 18.2195 140.091 18.3805L140.824 17.7ZM138.574 17V16H136.774V17V18H138.574V17ZM136.774 17V16C135.443 16 134.269 16.3708 133.446 17.2778C132.639 18.1665 132.324 19.4018 132.324 20.8H133.324H134.324C134.324 19.6649 134.583 19.0002 134.927 18.6222C135.253 18.2626 135.804 18 136.774 18V17ZM133.324 20.8H132.324V35.95H133.324H134.324V20.8H133.324ZM133.324 35.95H132.324C132.324 36.0447 132.311 36.0868 132.309 36.0931C132.309 36.0953 132.311 36.0882 132.318 36.0753C132.326 36.0621 132.338 36.0462 132.354 36.0304C132.37 36.0146 132.386 36.0028 132.399 35.9949C132.412 35.9871 132.419 35.985 132.417 35.9857C132.41 35.9878 132.368 36 132.274 36V37V38C132.778 38 133.34 37.8733 133.768 37.4446C134.197 37.0159 134.324 36.4541 134.324 35.95H133.324ZM154.796 34.9L154.097 35.6154L154.796 34.9ZM154.796 13.6L155.494 14.3154L154.796 13.6ZM167.196 34.3H168.196V33.3H167.196V34.3ZM166.996 34.3V33.3H166.323L166.069 33.9227L166.996 34.3ZM165.046 36.35L165.467 37.257L165.48 37.2509L165.493 37.2444L165.046 36.35ZM159.646 17.7L160.353 18.4071L160.366 18.394L160.378 18.3805L159.646 17.7ZM159.646 30.85L158.913 31.5304L158.925 31.544L158.938 31.5571L159.646 30.85ZM162.096 37V36H160.896V37V38H162.096V37ZM160.896 37V36C158.438 36 156.688 35.3504 155.494 34.1846L154.796 34.9L154.097 35.6154C155.77 37.2496 158.086 38 160.896 38V37ZM154.796 34.9L155.494 34.1846C154.309 33.0266 153.646 31.3022 153.646 28.85H152.646H151.646C151.646 31.6644 152.416 33.9734 154.097 35.6154L154.796 34.9ZM152.646 28.85H153.646V19.65H152.646H151.646V28.85H152.646ZM152.646 19.65H153.646C153.646 17.1978 154.309 15.4734 155.494 14.3154L154.796 13.6L154.097 12.8846C152.416 14.5266 151.646 16.8356 151.646 19.65H152.646ZM154.796 13.6L155.494 14.3154C156.688 13.1496 158.438 12.5 160.896 12.5V11.5V10.5C158.086 10.5 155.77 11.2504 154.097 12.8846L154.796 13.6ZM160.896 11.5V12.5H172.446V11.5V10.5H160.896V11.5ZM172.446 11.5V12.5C172.552 12.5 172.606 12.5131 172.624 12.5185C172.636 12.5226 172.613 12.517 172.58 12.4859C172.565 12.4715 172.553 12.4562 172.544 12.4423C172.536 12.4288 172.533 12.4203 172.533 12.4203C172.533 12.4222 172.546 12.4595 172.546 12.55H173.546H174.546C174.546 12.0337 174.408 11.4658 173.961 11.0391C173.523 10.6208 172.955 10.5 172.446 10.5V11.5ZM173.546 12.55H172.546V35.95H173.546H174.546V12.55H173.546ZM173.546 35.95H172.546C172.546 36.0405 172.533 36.0778 172.533 36.0797C172.533 36.0797 172.536 36.0712 172.544 36.0577C172.553 36.0438 172.565 36.0285 172.58 36.0141C172.613 35.983 172.636 35.9774 172.624 35.9814C172.606 35.9869 172.552 36 172.446 36V37V38C172.955 38 173.523 37.8792 173.961 37.4609C174.408 37.0342 174.546 36.4663 174.546 35.95H173.546ZM172.446 37V36H168.246V37V38H172.446V37ZM168.246 37V36C168.151 36 168.109 35.9878 168.102 35.9857C168.1 35.985 168.107 35.9871 168.12 35.9949C168.133 36.0028 168.149 36.0146 168.165 36.0304C168.181 36.0462 168.193 36.0621 168.201 36.0753C168.208 36.0882 168.211 36.0953 168.21 36.0931C168.208 36.0868 168.196 36.0447 168.196 35.95H167.196H166.196C166.196 36.4541 166.322 37.0159 166.751 37.4446C167.18 37.8733 167.741 38 168.246 38V37ZM167.196 35.95H168.196V34.3H167.196H166.196V35.95H167.196ZM167.196 34.3V33.3H166.996V34.3V35.3H167.196V34.3ZM166.996 34.3L166.069 33.9227C165.801 34.5806 165.332 35.0888 164.598 35.4556L165.046 36.35L165.493 37.2444C166.626 36.6779 167.456 35.8194 167.922 34.6773L166.996 34.3ZM165.046 36.35L164.624 35.443C163.824 35.8148 162.984 36 162.096 36V37V38C163.274 38 164.401 37.7519 165.467 37.257L165.046 36.35ZM167.196 27.7H168.196V17.55H167.196H166.196V27.7H167.196ZM167.196 17.55H168.196C168.196 17.1891 168.093 16.7412 167.721 16.4003C167.366 16.0746 166.929 16 166.596 16V17V18C166.662 18 166.525 18.0171 166.37 17.8747C166.198 17.7172 166.196 17.5443 166.196 17.55H167.196ZM166.596 17V16H161.896V17V18H166.596V17ZM161.896 17V16C160.73 16 159.63 16.2472 158.913 17.0195L159.646 17.7L160.378 18.3805C160.528 18.2195 160.928 18 161.896 18V17ZM159.646 17.7L158.938 16.9929C158.219 17.712 157.996 18.8003 157.996 19.95H158.996H159.996C159.996 18.9664 160.205 18.5547 160.353 18.4071L159.646 17.7ZM158.996 19.95H157.996V28.55H158.996H159.996V19.95H158.996ZM158.996 28.55H157.996C157.996 29.7101 158.224 30.7883 158.913 31.5304L159.646 30.85L160.378 30.1695C160.201 29.9783 159.996 29.5233 159.996 28.55H158.996ZM159.646 30.85L158.938 31.5571C159.658 32.2762 160.746 32.5 161.896 32.5V31.5V30.5C160.912 30.5 160.5 30.2905 160.353 30.1429L159.646 30.85ZM161.896 31.5V32.5H163.746V31.5V30.5H161.896V31.5ZM163.746 31.5V32.5C165.076 32.5 166.25 32.1292 167.073 31.2222C167.88 30.3335 168.196 29.0982 168.196 27.7H167.196H166.196C166.196 28.8351 165.936 29.4998 165.593 29.8778C165.266 30.2374 164.715 30.5 163.746 30.5V31.5ZM184.574 37V36H180.324V37V38H184.574V37ZM180.324 37V36C180.23 36 180.188 35.9878 180.181 35.9857C180.179 35.985 180.186 35.9871 180.199 35.9949C180.212 36.0028 180.228 36.0146 180.244 36.0304C180.26 36.0462 180.272 36.0621 180.28 36.0753C180.287 36.0882 180.289 36.0953 180.289 36.0931C180.287 36.0868 180.274 36.0447 180.274 35.95H179.274H178.274C178.274 36.4541 178.401 37.0159 178.83 37.4446C179.258 37.8733 179.82 38 180.324 38V37ZM179.274 35.95H180.274V2.9H179.274H178.274V35.95H179.274ZM179.274 2.9H180.274C180.274 2.80535 180.287 2.76324 180.289 2.75685C180.289 2.75466 180.287 2.76175 180.28 2.77465C180.272 2.78791 180.26 2.80378 180.244 2.81961C180.228 2.83543 180.212 2.84719 180.199 2.85515C180.186 2.86289 180.179 2.86504 180.181 2.86431C180.188 2.86218 180.23 2.85 180.324 2.85V1.85V0.849999C179.82 0.849999 179.258 0.976712 178.83 1.40539C178.401 1.83407 178.274 2.39585 178.274 2.9H179.274ZM180.324 1.85V2.85H184.574V1.85V0.849999H180.324V1.85ZM184.574 1.85V2.85C184.669 2.85 184.711 2.86218 184.718 2.86431C184.72 2.86504 184.713 2.86289 184.7 2.85515C184.687 2.84719 184.671 2.83543 184.655 2.81961C184.639 2.80378 184.627 2.78791 184.619 2.77465C184.612 2.76175 184.609 2.75466 184.61 2.75685C184.612 2.76324 184.624 2.80535 184.624 2.9H185.624H186.624C186.624 2.39585 186.498 1.83407 186.069 1.40539C185.64 0.976712 185.079 0.849999 184.574 0.849999V1.85ZM185.624 2.9H184.624V35.95H185.624H186.624V2.9H185.624ZM185.624 35.95H184.624C184.624 36.0447 184.612 36.0868 184.61 36.0931C184.609 36.0953 184.612 36.0882 184.619 36.0753C184.627 36.0621 184.639 36.0462 184.655 36.0304C184.671 36.0146 184.687 36.0028 184.7 35.9949C184.713 35.9871 184.72 35.985 184.718 35.9857C184.711 35.9878 184.669 36 184.574 36V37V38C185.079 38 185.64 37.8733 186.069 37.4446C186.498 37.0159 186.624 36.4541 186.624 35.95H185.624Z" fill="#5C2975" mask="url(#path-1-outside-1_2117_559)"/>
</svg>
